<svg data-logo="logo" xmlns="http://www.w3.org/2000/svg" viewBox="0 0 173 43">
        <g style="opacity: 1;" id="logogram" transform="translate(0, 1) rotate(0)"><path d="M18.2492 0.539978H28.9287L24.642 12.5196C17.097 13.8455 11.3262 21.1453 11.3262 29.9517C11.3262 33.9244 12.5006 37.5906 14.4824 40.54H0.301758L13.2656 4.31163C14.0807 2.03368 16.0544 0.539978 18.2492 0.539978Z" fill="#341492"></path><path d="M28.9285 0.539978L25.9158 8.95924L25.008 0.539978H28.9285Z" fill="black" fill-opacity="0.3"></path><path d="M35.6875 0.539978H25.008L29.2767 12.469C36.9719 13.6481 42.8999 21.026 42.8999 29.9517C42.8999 33.9244 41.7255 37.5906 39.7437 40.54H53.635L40.6712 4.31164C39.8561 2.03368 37.8824 0.539978 35.6875 0.539978Z" fill="#4C28B5"></path><path d="M16.3446 39.3871C14.5195 36.788 13.4313 33.5119 13.4313 29.9516C13.4313 21.5049 19.5569 14.6576 27.1132 14.6576C34.6696 14.6576 40.7952 21.5049 40.7952 29.9516C40.7952 33.5119 39.707 36.788 37.882 39.3871C34.886 37.1566 31.1562 35.834 27.1132 35.834C23.0703 35.834 19.3406 37.1566 16.3446 39.3871Z" fill="#4C28B5"></path></g>
        <g style="opacity: 1;" id="logotype" transform="translate(60, 8)"><path fill="#ffffff" d="M15.45 27L7.93 27L7.93 2.92L24.52 2.92L24.52 8.24L15.45 8.24L15.45 13.10L23.85 13.10L23.85 17.80L15.45 17.80L15.45 27ZM33.16 27.28L33.16 27.28Q30.82 27.28 29.36 26.44Q27.91 25.60 27.25 24.16Q26.58 22.73 26.58 20.95L26.58 20.95L26.58 9.46L33.97 9.46L33.97 19.93Q33.97 20.73 34.44 21.17Q34.91 21.61 35.58 21.61L35.58 21.61Q36.28 21.61 37.01 21.19L37.01 21.19L37.40 26.05Q36.63 26.65 35.40 26.96Q34.18 27.28 33.16 27.28ZM30.29 7.54L30.29 7.54Q28.68 7.54 27.53 6.51Q26.37 5.47 26.37 3.97L26.37 3.97Q26.37 2.92 26.93 2.13Q27.49 1.34 28.40 0.89Q29.31 0.43 30.29 0.43L30.29 0.43Q31.38 0.43 32.27 0.92Q33.16 1.41 33.70 2.22Q34.25 3.02 34.25 3.97L34.25 3.97Q34.25 5.02 33.67 5.82Q33.09 6.63 32.20 7.08Q31.31 7.54 30.29 7.54ZM50.52 27L42.02 27L35.89 9.46L44.01 9.46L47.06 19.96L50.03 9.46L56.44 9.46L50.52 27ZM68.13 22.38L68.13 22.38Q69.14 22.38 70.28 22.17Q71.42 21.96 72.61 21.40L72.61 21.40L73.45 25.91Q72.15 26.58 70.63 26.93Q69.11 27.28 67.15 27.28L67.15 27.28Q63.61 27.28 61.21 26.13Q58.82 24.97 57.59 22.94Q56.37 20.91 56.37 18.25L56.37 18.25Q56.37 15.52 57.68 13.49Q58.99 11.46 61.20 10.34Q63.40 9.22 66.06 9.22L66.06 9.22Q70.02 9.22 72.12 11.69Q74.22 14.15 74.22 18.70L74.22 18.70L63.79 20.04Q64.94 22.38 68.13 22.38ZM63.23 16.81L63.23 16.81L68.72 15.66Q68.58 14.54 67.95 14.00Q67.32 13.45 66.38 13.45L66.38 13.45Q64.98 13.45 64.15 14.42Q63.33 15.38 63.23 16.81ZM83.53 27L76.14 27L76.14 9.46L83.42 9.46L83.42 13.84Q84.12 11.46 85.61 10.34Q87.09 9.22 89.16 9.22L89.16 9.22L90.03 15.41Q89.20 15.31 88.39 15.31L88.39 15.31Q83.53 15.31 83.53 19.30L83.53 19.30L83.53 27ZM98.64 27L91.26 27L91.26 9.46L98.54 9.46L98.54 13.84Q99.24 11.46 100.73 10.34Q102.21 9.22 104.28 9.22L104.28 9.22L105.15 15.41Q104.31 15.31 103.51 15.31L103.51 15.31Q98.64 15.31 98.64 19.30L98.64 19.30L98.64 27ZM107.99 27.21L107.99 27.21Q106.06 27.21 105.05 26.18Q104.03 25.14 104.03 23.64L104.03 23.64Q104.03 22.10 105.12 21.10Q106.20 20.11 107.99 20.11L107.99 20.11Q109.77 20.11 110.84 21.16Q111.91 22.20 111.91 23.64L111.91 23.64Q111.91 25.25 110.91 26.23Q109.91 27.21 107.99 27.21Z"></path></g>
        
      </svg>